<svg width="63" height="72" viewBox="0 0 63 72" fill="none" xmlns="http://www.w3.org/2000/svg">
<rect x="23" width="40" height="40" rx="7" fill="#2E5258"/>
<path d="M1.74023 29.6836L8.18555 26.4609C8.61523 26.2461 9.13086 26.2676 9.53906 26.5254C9.94726 26.7832 10.2051 27.2344 10.2051 27.7178V29.5439H10.667C10.9355 23.1523 13.0088 17.1904 16.5967 12.6143C20.5176 7.58691 25.7598 4.82617 31.3672 4.82617C31.7754 4.82617 32.1514 4.99805 32.4199 5.30957L53.9043 30.0166L53.915 30.0273C53.9258 30.0381 53.9365 30.0596 53.958 30.0811C53.9688 30.1025 53.9902 30.1133 54.001 30.1348C54.0117 30.1562 54.0225 30.167 54.0332 30.1885C54.0439 30.21 54.0547 30.2314 54.0654 30.2529C54.0762 30.2744 54.0869 30.2852 54.0977 30.3066C54.1084 30.3281 54.1191 30.3496 54.1299 30.3711C54.1406 30.3926 54.1514 30.4141 54.1514 30.4248C54.1621 30.4463 54.1729 30.4678 54.1729 30.4893C54.1836 30.5107 54.1836 30.5322 54.1943 30.5537C54.2051 30.5752 54.2051 30.5967 54.2158 30.6182C54.2158 30.6396 54.2266 30.6611 54.2266 30.6719C54.2266 30.6934 54.2373 30.7256 54.2373 30.7471C54.2373 30.7686 54.2373 30.7793 54.248 30.8008C54.2588 30.8867 54.2588 30.9727 54.248 31.0693C54.248 31.0908 54.248 31.1016 54.2373 31.123C54.2373 31.1445 54.2266 31.1768 54.2266 31.1982C54.2266 31.2197 54.2158 31.2412 54.2158 31.252C54.2051 31.2734 54.2051 31.2949 54.1943 31.3164C54.1836 31.3379 54.1836 31.3594 54.1729 31.3809C54.1621 31.4023 54.1621 31.4238 54.1514 31.4453C54.1406 31.4668 54.1406 31.4883 54.1299 31.499C54.1191 31.5205 54.1084 31.542 54.0977 31.5635C54.0869 31.585 54.0762 31.5957 54.0654 31.6172C54.0547 31.6387 54.0439 31.6602 54.0332 31.6816C54.0225 31.7031 54.0117 31.7139 54.001 31.7354C53.9902 31.7568 53.9688 31.7676 53.958 31.7891C53.9473 31.8105 53.9365 31.8213 53.915 31.8428L53.9043 31.8535L32.4199 56.5605C32.1514 56.8613 31.7754 57.0439 31.3672 57.0439C25.7598 57.0439 20.5176 54.2832 16.5967 49.2666C13.0088 44.6904 10.9355 38.7178 10.667 32.3369H10.2051V34.1631C10.2051 34.6465 9.958 35.0977 9.53906 35.3555C9.31347 35.4951 9.05566 35.5596 8.80859 35.5596C8.59375 35.5596 8.37891 35.5059 8.18555 35.4092L1.74023 32.1865C1.26758 31.9502 0.966797 31.4668 0.966797 30.9404C0.966797 30.4141 1.26758 29.9199 1.74023 29.6836ZM30.7441 7.62988C21.4951 8.04883 14.0078 17.5986 13.46 29.5332H49.79L30.7441 7.62988ZM30.7441 54.2295L49.79 32.3262H13.46C14.0078 44.2607 21.4951 53.8105 30.7441 54.2295ZM7.41211 31.8965V29.9629L5.48926 30.9297L7.41211 31.8965Z" fill="white"/>
</svg>
