<?xml version="1.0" encoding="utf-8"?>
<!-- Generator: Adobe Illustrator 24.2.0, SVG Export Plug-In . SVG Version: 6.00 Build 0)  -->
<svg version="1.1"
	 id="Ebene_1" xmlns:cc="http://creativecommons.org/ns#" xmlns:dc="http://purl.org/dc/elements/1.1/" xmlns:inkscape="http://www.inkscape.org/namespaces/inkscape" xmlns:rdf="http://www.w3.org/1999/02/22-rdf-syntax-ns#" xmlns:sodipodi="http://sodipodi.sourceforge.net/DTD/sodipodi-0.dtd" xmlns:svg="http://www.w3.org/2000/svg"
	 xmlns="http://www.w3.org/2000/svg" xmlns:xlink="http://www.w3.org/1999/xlink" x="0px" y="0px" viewBox="0 0 32 40"
	 style="enable-background:new 0 0 32 40;" xml:space="preserve">
<style type="text/css">
	.st0{fill-rule:evenodd;clip-rule:evenodd;fill:#FFFFFF;}
</style>
<g transform="translate(0,-1020.3622)">
	<path class="st0" d="M26.4,1034.1c-0.4,0-0.7,0.4-0.7,0.8c0,0.1,0.1,0.2,0.1,0.4l0.7,1.1l-0.7,1.1c-0.2,0.3-0.1,0.8,0.2,1
		c0.3,0.2,0.8,0.1,1-0.2c0,0,0,0,0,0l1-1.5c0.2-0.3,0.2-0.6,0-0.8l-1-1.5C27,1034.2,26.7,1034.1,26.4,1034.1z"/>
	<path class="st0" d="M20.2,1037.3c0.1,0.9,0.3,1.8,0.3,2.6c0.1,1.1,0,2-0.8,2.9c-0.9,1.1-3.3,2.8-4.8,3.7c-1.1,0.7-1.5,2-1.2,3.3
		l0.1,0.2c0.3,1,1.8,0.5,1.4-0.5l-0.1-0.2c-0.2-0.5,0.1-1.3,0.5-1.5c1.5-1,3.9-2.5,5.1-4l0,0c1-1.2,1.2-2.7,1.1-4
		c-0.1-0.9-0.2-1.8-0.3-2.6L20.2,1037.3L20.2,1037.3z"/>
	<path class="st0" d="M8.6,1035.8c0.1,0.3,0.1,0.7,0,1h17l0.3-0.5l-0.3-0.5H8.6z"/>
	<path class="st0" d="M4.4,1034.1c-0.4,0-0.7,0.4-0.7,0.8c0,0.1,0.1,0.2,0.1,0.3l0.7,1.1l-0.7,1.1c-0.2,0.3-0.1,0.8,0.2,1
		c0.1,0.1,0.3,0.1,0.4,0.1h2c0.3,0,0.5-0.1,0.6-0.3l1-1.5c0.2-0.3,0.2-0.6,0-0.8l-1-1.5c-0.1-0.2-0.4-0.3-0.6-0.3L4.4,1034.1
		C4.5,1034.1,4.5,1034.1,4.4,1034.1L4.4,1034.1z"/>
	<path class="st0" d="M13.8,1025.5l-3.4,9.8h1.1l3.2-9C14.3,1026.1,14,1025.8,13.8,1025.5z"/>
	<path class="st0" d="M10.4,1037.3l3.5,9.8c0.2-0.3,0.5-0.6,0.8-0.8l-3.2-9L10.4,1037.3z"/>
	<path class="st0" d="M14.7,1022.1c-0.3,0-0.6,0.2-0.7,0.5l-0.1,0.2c-0.4,1.2,0.1,2.5,1.1,3.2c1.5,0.9,3.8,2.6,4.8,3.7l0,0
		c0.9,1,1,1.9,0.9,2.9c-0.1,0.8-0.3,1.7-0.5,2.6h1.5c0.1-0.8,0.3-1.6,0.4-2.5c0.1-1.3-0.1-2.8-1.3-4.1c-1.2-1.5-3.6-3.1-5.1-4
		c-0.4-0.2-0.7-1-0.5-1.5l0.1-0.2C15.5,1022.6,15.2,1022.1,14.7,1022.1L14.7,1022.1z"/>
</g>
</svg>
