<svg width="93" height="93" viewBox="0 0 93 93" fill="none" xmlns="http://www.w3.org/2000/svg">
<g filter="url(#filter0_d)">
<path d="M7.69874 63.8332C11.499 70.3443 16.6544 75.4996 23.1654 79.2999C29.6779 83.1002 36.7874 85 44.4986 85C52.2092 85 59.3208 83.1002 65.8318 79.2999C72.3436 75.5003 77.499 70.345 81.2992 63.8332C85.1002 57.3214 87 50.2099 87 42.5C87 34.7894 85.0995 27.6792 81.2999 21.1668C77.4996 14.6564 72.3443 9.50036 65.8325 5.70008C59.3208 1.89979 52.2099 -3.04144e-06 44.4993 -3.71553e-06C36.7887 -4.38961e-06 29.6772 1.89979 23.1661 5.70008C16.655 9.49968 11.4997 14.6557 7.69942 21.1668C3.89981 27.6786 2 34.7901 2 42.5C2 50.2106 3.89981 57.3221 7.69874 63.8332ZM22.1975 40.0099L47.3215 14.886C48.0225 14.185 48.8518 13.8338 49.8116 13.8338C50.7713 13.8338 51.6013 14.185 52.3023 14.8853L57.9467 20.531C58.6477 21.232 58.9981 22.062 58.9981 23.0211C58.9981 23.9795 58.6477 24.8108 57.9467 25.5118L40.9572 42.5L57.9474 59.4889C58.6483 60.1891 58.9988 61.0198 58.9988 61.9789C58.9988 62.938 58.6483 63.768 57.9474 64.469L52.303 70.1147C51.6013 70.8157 50.772 71.1662 49.8122 71.1662C48.8525 71.1662 48.0225 70.8157 47.3215 70.1147L22.1975 44.9907C21.4966 44.2904 21.1461 43.4597 21.1461 42.5007C21.1461 41.5416 21.4966 40.7109 22.1975 40.0099Z" fill="url(#paint0_linear)"/>
</g>
<defs>
<filter id="filter0_d" x="0" y="0" width="93" height="93" filterUnits="userSpaceOnUse" color-interpolation-filters="sRGB">
<feFlood flood-opacity="0" result="BackgroundImageFix"/>
<feColorMatrix in="SourceAlpha" type="matrix" values="0 0 0 0 0 0 0 0 0 0 0 0 0 0 0 0 0 0 127 0"/>
<feOffset dx="2" dy="4"/>
<feGaussianBlur stdDeviation="2"/>
<feColorMatrix type="matrix" values="0 0 0 0 0 0 0 0 0 0 0 0 0 0 0 0 0 0 0.9 0"/>
<feBlend mode="normal" in2="BackgroundImageFix" result="effect1_dropShadow"/>
<feBlend mode="normal" in="SourceGraphic" in2="effect1_dropShadow" result="shape"/>
</filter>
<linearGradient id="paint0_linear" x1="2" y1="42" x2="87" y2="42" gradientUnits="userSpaceOnUse">
<stop stop-color="#FE5350"/>
<stop offset="1" stop-color="#470645"/>
</linearGradient>
</defs>
</svg>
