<svg width="88" height="88" viewBox="0 0 88 88" fill="none" xmlns="http://www.w3.org/2000/svg">
<path d="M44 0.0899963C35.3154 0.0899963 26.8259 2.66527 19.6049 7.49017C12.3839 12.3151 6.75588 19.1729 3.43244 27.1964C0.108991 35.2199 -0.760573 44.0487 0.933704 52.5664C2.62798 61.0841 6.81 68.9081 12.9509 75.0491C19.0919 81.19 26.9159 85.372 35.4336 87.0663C43.9513 88.7606 52.7801 87.891 60.8036 84.5676C68.8271 81.2441 75.6849 75.616 80.5098 68.3951C85.3347 61.1741 87.91 52.6846 87.91 44C87.91 38.2337 86.7742 32.5238 84.5675 27.1964C82.3609 21.869 79.1265 17.0284 75.049 12.9509C70.9716 8.87352 66.131 5.63913 60.8036 3.43245C55.4762 1.22576 49.7663 0.0899963 44 0.0899963ZM22.56 28.27H65.06C65.1725 28.2775 65.2804 28.3177 65.3705 28.3856C65.4605 28.4535 65.5289 28.5461 65.5671 28.6522C65.6053 28.7584 65.6117 28.8733 65.5856 28.983C65.5594 29.0928 65.5019 29.1925 65.42 29.27L44.17 45.91C44.0675 45.9911 43.9407 46.0352 43.81 46.0352C43.6793 46.0352 43.5524 45.9911 43.45 45.91L22.21 29.31C22.1141 29.2364 22.0436 29.1346 22.0084 29.019C21.9732 28.9033 21.975 28.7796 22.0135 28.665C22.0521 28.5504 22.1255 28.4508 22.2235 28.3799C22.3214 28.3091 22.4391 28.2707 22.56 28.27V28.27ZM19 57.18V30.18C18.9914 30.0607 19.02 29.9416 19.0817 29.8391C19.1435 29.7366 19.2354 29.6557 19.3449 29.6075C19.4544 29.5594 19.5762 29.5462 19.6934 29.5699C19.8107 29.5936 19.9178 29.653 20 29.74L36.39 44.22C36.4569 44.2744 36.5108 44.343 36.5478 44.4208C36.5848 44.4987 36.6041 44.5838 36.6041 44.67C36.6041 44.7562 36.5848 44.8413 36.5478 44.9192C36.5108 44.997 36.4569 45.0656 36.39 45.12L19.93 57.64C19.8441 57.705 19.7418 57.7448 19.6346 57.7549C19.5273 57.7651 19.4194 57.7451 19.3228 57.6974C19.2263 57.6496 19.1449 57.5759 19.0879 57.4846C19.0309 57.3932 19.0004 57.2877 19 57.18ZM65.06 59.73H22.56C22.4475 59.7225 22.3396 59.6823 22.2495 59.6144C22.1594 59.5465 22.0911 59.4539 22.0529 59.3477C22.0147 59.2416 22.0083 59.1267 22.0344 59.017C22.0605 58.9072 22.1181 58.8075 22.2 58.73L38.64 45.85C38.7424 45.7689 38.8693 45.7248 39 45.7248C39.1307 45.7248 39.2575 45.7689 39.36 45.85L43.46 49.05C43.5624 49.1311 43.6893 49.1752 43.82 49.1752C43.9507 49.1752 44.0775 49.1311 44.18 49.05L48.28 45.85C48.3824 45.7689 48.5093 45.7248 48.64 45.7248C48.7707 45.7248 48.8975 45.7689 49 45.85L65.42 58.69C65.5166 58.7641 65.5873 58.8668 65.6223 58.9834C65.6573 59.1 65.6547 59.2247 65.6149 59.3398C65.575 59.4548 65.5 59.5544 65.4004 59.6245C65.3008 59.6945 65.1817 59.7314 65.06 59.73V59.73ZM69 57.18C68.9995 57.2877 68.9691 57.3932 68.912 57.4846C68.855 57.5759 68.7737 57.6496 68.6771 57.6974C68.5806 57.7451 68.4726 57.7651 68.3654 57.7549C68.2582 57.7448 68.1559 57.705 68.07 57.64L51.64 45.12C51.5731 45.0656 51.5192 44.997 51.4822 44.9192C51.4451 44.8413 51.4259 44.7562 51.4259 44.67C51.4259 44.5838 51.4451 44.4987 51.4822 44.4208C51.5192 44.343 51.5731 44.2744 51.64 44.22L68 29.75C68.0822 29.663 68.1892 29.6036 68.3065 29.5799C68.4238 29.5562 68.5455 29.5694 68.6551 29.6175C68.7646 29.6657 68.8565 29.7466 68.9183 29.8491C68.98 29.9516 69.0086 30.0707 69 30.19V57.18Z" fill="black"/>
</svg>
