<svg width="666" height="115" viewBox="0 0 666 115" fill="none" xmlns="http://www.w3.org/2000/svg">
<path fill-rule="evenodd" clip-rule="evenodd" d="M113.203 8.98438L8.98438 8.98437L8.98437 113.203H113.203V8.98438ZM8.98438 7.1875C7.99199 7.1875 7.1875 7.99199 7.1875 8.98437V113.203C7.1875 114.196 7.99199 115 8.98437 115H113.203C114.196 115 115 114.196 115 113.203V8.98438C115 7.99199 114.196 7.1875 113.203 7.1875H8.98438Z" fill="#F1F1F1"/>
<path fill-rule="evenodd" clip-rule="evenodd" d="M1.79688 0C0.804488 0 0 0.804488 0 1.79687V100.625C0 101.617 0.804488 102.422 1.79687 102.422H7.1875V8.98437C7.1875 7.99199 7.99199 7.1875 8.98438 7.1875H102.422V1.79688C102.422 0.804488 101.617 0 100.625 0H1.79688Z" fill="#F1F1F1"/>
<path fill-rule="evenodd" clip-rule="evenodd" d="M1.79688 1.79687V100.625H5.39062V8.98437C5.39062 6.9996 6.9996 5.39062 8.98438 5.39062H100.625V1.79688L1.79688 1.79687ZM102.422 1.79688C102.422 0.804488 101.617 0 100.625 0H1.79688C0.804488 0 0 0.804488 0 1.79687V100.625C0 101.617 0.804488 102.422 1.79687 102.422H7.1875V8.98437C7.1875 7.99199 7.99199 7.1875 8.98438 7.1875H102.422V1.79688Z" fill="#F1F1F1"/>
<path d="M66.3176 41.288C66.4916 41.288 66.6677 41.2447 66.8293 41.151L70.1325 39.2554C70.6257 38.9722 70.7956 38.3431 70.5125 37.8499C70.2303 37.3567 69.6002 37.1858 69.107 37.47L65.8038 39.3656C65.3106 39.6487 65.1407 40.2779 65.4238 40.7711C65.6143 41.1026 65.9613 41.288 66.3176 41.288Z" fill="#F1F1F1"/>
<path d="M54.918 39.2556L58.2202 41.1513C58.3818 41.2439 58.5579 41.2882 58.7319 41.2882C59.0892 41.2882 59.4352 41.1029 59.6257 40.7713C59.9088 40.2781 59.7389 39.649 59.2457 39.3658L55.9436 37.4702C55.4493 37.185 54.8212 37.358 54.5381 37.8501C54.2549 38.3434 54.4248 38.9725 54.918 39.2556Z" fill="#F1F1F1"/>
<path d="M85.8019 90.2847C85.7978 90.2826 85.7947 90.2816 85.7906 90.2795C85.1995 90.0005 84.5776 89.7379 83.9104 89.4991C77.0909 87.0639 68.6857 87.6683 62.9392 88.5713C63.0462 86.8713 63.1039 83.5795 63.0545 77.106L72.7354 62.7895C72.8507 62.6186 72.9115 62.4188 72.9115 62.2129V45.6352L76.0901 43.3566C76.3598 43.163 76.5194 42.8521 76.5194 42.5195V34.3244V17.202C76.5194 16.7428 76.2157 16.3392 75.774 16.2125C75.3322 16.0848 74.8617 16.265 74.6166 16.6542L67.5366 27.9353L62.5232 30.8142L57.5108 27.9353L50.4318 16.6553C50.1878 16.2661 49.7152 16.0859 49.2745 16.2135C48.8327 16.3402 48.529 16.7438 48.529 17.2031V34.3274V42.5226C48.529 42.8541 48.6886 43.1661 48.9583 43.3597L50.7572 44.6499L30.7394 72.6259C30.6148 72.801 30.5469 73.011 30.5469 73.2252V93.5292C30.5469 93.6939 30.587 93.8566 30.6622 94.0039C30.7425 94.1583 37.8915 107.463 56.2247 107.463C58.906 107.463 61.8292 107.178 65.0026 106.526C73.3295 104.813 78.4717 103.777 81.9406 103.295C81.9417 103.295 81.9437 103.296 81.9448 103.296C81.9602 103.296 81.9746 103.288 81.989 103.288C87.4854 102.527 88.7478 103.168 91.8028 104.732C92.3825 105.028 93.0209 105.356 93.755 105.711C94.066 105.861 94.4315 105.845 94.7291 105.669C95.0267 105.493 95.2151 105.178 95.2316 104.833C95.2388 104.725 95.5765 94.9141 85.8019 90.2847ZM74.4611 32.2187L69.6402 28.4604L74.4611 20.7801V32.2187ZM55.4092 28.4604L50.5883 32.2187V20.7791L55.4092 28.4604ZM50.5893 34.8289L56.8641 29.938L62.0125 32.8952C62.3306 33.0774 62.7209 33.0774 63.038 32.8952L68.1863 29.938L74.4611 34.8289V41.9923L64.8193 48.9055L62.5252 46.3117L60.2311 48.9065L52.7959 43.5749L52.7949 43.5739C52.7949 43.5739 52.7939 43.5739 52.7928 43.5728L50.5893 41.9933V34.8289ZM64.5907 104.506C42.4725 109.054 33.7378 95.2467 32.6083 93.2635V73.5536L52.4324 45.8484L61.9249 52.6545C62.1041 52.7832 62.3142 52.8481 62.5252 52.8481C62.7363 52.8481 62.9464 52.7832 63.1255 52.6545L70.8532 47.1138V61.8999L63.0205 73.4826C62.9804 69.9735 62.9165 65.7446 62.8218 60.6056C62.8115 60.0372 62.3327 59.5996 61.7726 59.5955C61.2042 59.6058 60.7511 60.0753 60.7624 60.6447C60.9406 70.2927 61.1187 85.6213 60.9015 88.9235C60.3897 89.0192 59.913 89.114 59.4723 89.2056C56.1042 79.6894 55.4875 67.0369 55.4813 66.9071C55.4555 66.3388 54.9768 65.9073 54.4053 65.9259C53.8379 65.9516 53.3983 66.4335 53.424 67.0008C53.4487 67.5383 54.049 79.8984 57.448 89.6607C56.7766 89.8244 56.3555 89.9398 56.2607 89.9665C56.2566 89.9676 56.2329 89.9737 56.199 89.983C53.9893 81.8528 44.2425 78.5074 43.811 78.3632C43.2746 78.1861 42.6897 78.4754 42.5085 79.014C42.3283 79.5535 42.6197 80.1363 43.1593 80.3165C43.254 80.3474 52.1936 83.4261 54.1757 90.4587C50.3587 91.2763 42.2552 92.6076 38.0696 90.3022C37.5713 90.0283 36.9452 90.2095 36.6713 90.7079C36.3964 91.2052 36.5787 91.8323 37.077 92.1062C43.3631 95.57 56.2577 92.1021 56.8106 91.9507C56.964 91.9074 72.0085 87.7713 82.6707 91.2598L75.7544 94.1501C75.4548 94.2757 75.2324 94.5341 75.1531 94.8482C75.0738 95.1622 75.1469 95.4958 75.3508 95.7481L80.01 101.507C76.4875 102.073 71.6501 103.055 64.5907 104.506ZM92.7439 102.896C89.3759 101.171 87.7315 100.49 82.3783 101.16L77.8148 95.5195L85.355 92.3687C91.2756 95.3743 92.7326 100.444 93.0755 103.067C92.9632 103.008 92.852 102.952 92.7439 102.896Z" fill="#F1F1F1"/>
<path d="M179.3 52.65H162.25V59.65H175.85V66.3H162.25V79H153.65V46H179.3V52.65ZM198.821 45.5C202.154 45.5 205.021 46.1833 207.421 47.55C209.854 48.8833 211.721 50.8167 213.021 53.35C214.321 55.8833 214.971 58.9333 214.971 62.5C214.971 66.0667 214.321 69.1167 213.021 71.65C211.721 74.1833 209.854 76.1333 207.421 77.5C205.021 78.8333 202.154 79.5 198.821 79.5C195.454 79.5 192.554 78.8333 190.121 77.5C187.721 76.1333 185.871 74.1833 184.571 71.65C183.271 69.1167 182.621 66.0667 182.621 62.5C182.621 58.9333 183.271 55.8833 184.571 53.35C185.871 50.8167 187.721 48.8833 190.121 47.55C192.554 46.1833 195.454 45.5 198.821 45.5ZM198.821 52.25C196.421 52.25 194.588 53.1167 193.321 54.85C192.054 56.55 191.421 59.1 191.421 62.5C191.421 65.9 192.054 68.4667 193.321 70.2C194.588 71.9 196.421 72.75 198.821 72.75C201.188 72.75 203.004 71.9 204.271 70.2C205.538 68.4667 206.171 65.9 206.171 62.5C206.171 59.1 205.538 56.55 204.271 54.85C203.004 53.1167 201.188 52.25 198.821 52.25ZM247.398 79H237.148L230.948 68.45L224.948 79H215.198L226.398 62.4L215.848 46H225.998L231.648 56.1L237.348 46H246.698L236.148 62.15L247.398 79ZM280.214 45.5C283.314 45.5 285.997 46.2 288.264 47.6C290.564 48.9667 292.331 50.9167 293.564 53.45C294.797 55.9833 295.414 59 295.414 62.5C295.414 66 294.797 69.0167 293.564 71.55C292.331 74.0833 290.564 76.05 288.264 77.45C285.997 78.8167 283.314 79.5 280.214 79.5C277.114 79.5 274.414 78.8167 272.114 77.45C269.847 76.05 268.097 74.0833 266.864 71.55C265.631 69.0167 265.014 66 265.014 62.5C265.014 59 265.631 55.9833 266.864 53.45C268.097 50.9167 269.847 48.9667 272.114 47.6C274.414 46.2 277.114 45.5 280.214 45.5ZM280.214 47.8C277.647 47.8 275.414 48.4 273.514 49.6C271.647 50.7667 270.197 52.45 269.164 54.65C268.164 56.85 267.664 59.4667 267.664 62.5C267.664 65.5333 268.164 68.15 269.164 70.35C270.197 72.55 271.647 74.25 273.514 75.45C275.414 76.6167 277.647 77.2 280.214 77.2C282.781 77.2 284.997 76.6167 286.864 75.45C288.764 74.25 290.231 72.55 291.264 70.35C292.297 68.15 292.814 65.5333 292.814 62.5C292.814 59.4667 292.297 56.85 291.264 54.65C290.231 52.45 288.764 50.7667 286.864 49.6C284.997 48.4 282.781 47.8 280.214 47.8ZM329.085 46V79H325.985L308.485 53.1L306.035 48.85H305.985L306.135 52.85V79H303.735V46H306.885L324.335 71.85L326.835 76.15L326.735 72.15V46H329.085ZM341.977 76.7H361.777V79H339.477V46H341.977V76.7ZM370.591 46V79H368.091V46H370.591ZM406.331 46V79H403.231L385.731 53.1L383.281 48.85H383.231L383.381 52.85V79H380.981V46H384.131L401.581 71.85L404.081 76.15L403.981 72.15V46H406.331ZM416.723 79V46H439.273V48.3H419.223V61.05H435.073V63.4H419.223V76.7H440.073V79H416.723ZM493.713 46V79H491.313V54.4L491.613 48.4H491.563L479.513 79H477.213L465.162 48.4H465.113L465.413 54.4V79H463.013V46H466.763L476.713 71L478.363 76.05H478.413L480.013 71.05L489.963 46H493.713ZM504.126 79V46H526.676V48.3H506.626V61.05H522.476V63.4H506.626V76.7H527.476V79H504.126ZM565.441 46V79H563.041V54.4L563.341 48.4H563.291L551.241 79H548.941L536.891 48.4H536.841L537.141 54.4V79H534.741V46H538.491L548.441 71L550.091 76.05H550.141L551.741 71.05L561.691 46H565.441ZM588.954 45.5C592.054 45.5 594.738 46.2 597.004 47.6C599.304 48.9667 601.071 50.9167 602.304 53.45C603.538 55.9833 604.154 59 604.154 62.5C604.154 66 603.538 69.0167 602.304 71.55C601.071 74.0833 599.304 76.05 597.004 77.45C594.738 78.8167 592.054 79.5 588.954 79.5C585.854 79.5 583.154 78.8167 580.854 77.45C578.588 76.05 576.838 74.0833 575.604 71.55C574.371 69.0167 573.754 66 573.754 62.5C573.754 59 574.371 55.9833 575.604 53.45C576.838 50.9167 578.588 48.9667 580.854 47.6C583.154 46.2 585.854 45.5 588.954 45.5ZM588.954 47.8C586.388 47.8 584.154 48.4 582.254 49.6C580.388 50.7667 578.938 52.45 577.904 54.65C576.904 56.85 576.404 59.4667 576.404 62.5C576.404 65.5333 576.904 68.15 577.904 70.35C578.938 72.55 580.388 74.25 582.254 75.45C584.154 76.6167 586.388 77.2 588.954 77.2C591.521 77.2 593.738 76.6167 595.604 75.45C597.504 74.25 598.971 72.55 600.004 70.35C601.038 68.15 601.554 65.5333 601.554 62.5C601.554 59.4667 601.038 56.85 600.004 54.65C598.971 52.45 597.504 50.7667 595.604 49.6C593.738 48.4 591.521 47.8 588.954 47.8ZM624.725 46C627.992 46 630.609 46.8333 632.575 48.5C634.542 50.1667 635.525 52.45 635.525 55.35C635.525 57.7833 634.809 59.7833 633.375 61.35C631.975 62.8833 630.059 63.8667 627.625 64.3L637.275 79H634.325L624.775 64.55H624.675L624.425 64.7H614.975V79H612.475V46H624.725ZM624.675 62.35C627.342 62.35 629.375 61.75 630.775 60.55C632.209 59.35 632.925 57.6167 632.925 55.35C632.925 53.0833 632.209 51.35 630.775 50.15C629.375 48.9167 627.342 48.3 624.675 48.3H614.975V62.35H624.675ZM664.831 46L653.131 66.15V79H650.631V66.15L638.931 46H641.881L648.331 57.3L651.881 63.55L655.431 57.3L661.881 46H664.831Z" fill="#F1F1F1"/>
</svg>
