<svg width="76" height="73" viewBox="0 0 76 73" fill="none" xmlns="http://www.w3.org/2000/svg">
<g filter="url(#filter0_d)">
<path d="M41.2816 51.5816L28.5253 15.7409C28.4048 15.4023 28.1556 15.1261 27.8306 14.9717C27.5056 14.8173 27.1332 14.7984 26.7947 14.9189L2.90041 23.4231C2.56187 23.5436 2.28562 23.7927 2.13125 24.1177C1.97687 24.4427 1.95791 24.8151 2.07844 25.1537L14.836 60.9931C14.9566 61.3316 15.2057 61.6078 15.5307 61.7622C15.7149 61.8489 15.9126 61.8936 16.1117 61.8936C16.2647 61.8936 16.4191 61.8665 16.5653 61.815L40.4569 53.3109C41.1637 53.0603 41.5321 52.2844 41.2816 51.5816ZM16.935 58.8101L5.08604 25.5207L26.4277 17.9238L38.2767 51.2133L16.935 58.8101Z" fill="black"/>
<path d="M68.1821 26.4766L44.2553 18.0672C43.914 17.9467 43.543 17.9684 43.2193 18.1241C42.8957 18.2798 42.6465 18.5574 42.5274 18.896L38.0735 31.5764C37.8243 32.2819 38.1967 33.0552 38.9023 33.303C39.6037 33.5535 40.3797 33.1797 40.6275 32.4742L44.6331 21.0708L66.0032 28.5823L54.2897 61.9192L40.1522 56.9521C39.448 56.6989 38.6734 57.074 38.4269 57.7809C38.1778 58.4864 38.5502 59.2596 39.2557 59.5061L54.6715 64.9228C54.8191 64.9756 54.9708 64.9999 55.1198 64.9999C55.679 64.9999 56.2017 64.6519 56.3967 64.094L69.0081 28.2032C69.2573 27.4977 68.8862 26.7244 68.1821 26.4766Z" fill="black"/>
<path d="M27.419 2.70833H43.669C44.4178 2.70833 45.0232 2.10167 45.0232 1.35417C45.0232 0.606667 44.4178 0 43.669 0H27.419C26.6715 0 26.0648 0.606667 26.0648 1.35417C26.0648 2.10167 26.6715 2.70833 27.419 2.70833Z" fill="black"/>
<path d="M27.419 8.12496H43.669C44.4178 8.12496 45.0232 7.51829 45.0232 6.77079C45.0232 6.02329 44.4178 5.41663 43.669 5.41663H27.419C26.6715 5.41663 26.0648 6.02329 26.0648 6.77079C26.0648 7.51829 26.6715 8.12496 27.419 8.12496Z" fill="black"/>
</g>
<defs>
<filter id="filter0_d" x="0" y="0" width="75.0857" height="72.9999" filterUnits="userSpaceOnUse" color-interpolation-filters="sRGB">
<feFlood flood-opacity="0" result="BackgroundImageFix"/>
<feColorMatrix in="SourceAlpha" type="matrix" values="0 0 0 0 0 0 0 0 0 0 0 0 0 0 0 0 0 0 127 0"/>
<feOffset dx="2" dy="4"/>
<feGaussianBlur stdDeviation="2"/>
<feColorMatrix type="matrix" values="0 0 0 0 0 0 0 0 0 0 0 0 0 0 0 0 0 0 0.4 0"/>
<feBlend mode="normal" in2="BackgroundImageFix" result="effect1_dropShadow"/>
<feBlend mode="normal" in="SourceGraphic" in2="effect1_dropShadow" result="shape"/>
</filter>
</defs>
</svg>
