<svg width="87" height="73" viewBox="0 0 87 73" fill="none" xmlns="http://www.w3.org/2000/svg">
<g filter="url(#filter0_d)">
<path d="M44.1194 1.42955e-05C43.6279 0.00193269 43.1571 0.198036 42.8095 0.545589C42.4619 0.893143 42.2658 1.36398 42.2639 1.85549C42.263 2.10011 42.3102 2.34252 42.4029 2.56889C42.4957 2.79526 42.6321 3.00114 42.8044 3.17479C42.9767 3.34844 43.1815 3.48645 43.4071 3.58095C43.6327 3.67544 43.8748 3.72457 44.1194 3.72553H49.4676V7.30187C34.397 8.27238 22.4212 20.7888 22.4212 36.0945C22.4212 52.0316 35.3945 65 51.3376 65C67.2806 65 80.243 52.0316 80.243 36.0945C80.243 20.7844 68.2725 8.26594 53.1967 7.30187V3.72553H58.5448C58.7907 3.72649 59.0343 3.67878 59.2616 3.58514C59.4889 3.4915 59.6955 3.35379 59.8693 3.17995C60.0431 3.00611 60.1809 2.79958 60.2745 2.57226C60.3681 2.34494 60.4158 2.10133 60.4149 1.85549C60.4139 1.61087 60.3648 1.36883 60.2703 1.14319C60.1758 0.917558 60.0378 0.712745 59.8642 0.540449C59.6905 0.368152 59.4846 0.231745 59.2582 0.139017C59.0319 0.0462894 58.7895 -0.000944033 58.5448 1.42955e-05H44.1194ZM51.3376 10.9328C65.2681 10.9328 76.5175 22.1719 76.5175 36.0945C76.5175 50.0172 65.2681 61.2745 51.3376 61.2745C37.407 61.2745 26.1467 50.0172 26.1467 36.0945C26.1467 22.1719 37.407 10.9328 51.3376 10.9328ZM51.3376 18.0127C41.3693 18.0127 33.2448 26.1295 33.2448 36.0945C33.2448 46.0596 41.3693 54.18 51.3376 54.18C61.3059 54.18 69.4231 46.0596 69.4231 36.0945C69.4231 26.1295 61.3059 18.0127 51.3376 18.0127ZM3.87369 20.7232C3.62876 20.7217 3.38596 20.7686 3.15917 20.8611C2.93238 20.9536 2.72607 21.09 2.55203 21.2623C2.378 21.4347 2.23966 21.6396 2.14494 21.8655C2.05022 22.0914 2.00097 22.3337 2.00001 22.5786C1.99905 22.8248 2.04688 23.0687 2.14074 23.2963C2.23461 23.5238 2.37264 23.7305 2.54687 23.9044C2.72109 24.0783 2.92806 24.2159 3.1558 24.3093C3.38354 24.4028 3.62753 24.4501 3.87369 24.4487H18.2955C18.5401 24.4477 18.7822 24.3986 19.0078 24.3041C19.2334 24.2096 19.4382 24.0716 19.6105 23.8979C19.7828 23.7243 19.9192 23.5184 20.012 23.292C20.1047 23.0657 20.1519 22.8233 20.151 22.5786C20.149 22.0871 19.9529 21.6163 19.6054 21.2687C19.2578 20.9212 18.787 20.7251 18.2955 20.7232H3.87369ZM51.3376 21.7419C59.2934 21.7419 65.6939 28.1438 65.6939 36.0945C65.6939 44.0453 59.2934 50.4509 51.3376 50.4509C43.3817 50.4509 36.9703 44.0453 36.9703 36.0945C36.9703 28.1438 43.3817 21.7419 51.3376 21.7419ZM51.3376 26.0859C51.093 26.0849 50.8505 26.1321 50.6242 26.2249C50.3978 26.3176 50.1919 26.454 50.0183 26.6263C49.8446 26.7986 49.7066 27.0034 49.6121 27.2291C49.5176 27.4547 49.4685 27.6967 49.4676 27.9413V37.8991C49.4666 38.1449 49.5144 38.3885 49.608 38.6158C49.7016 38.8431 49.8393 39.0497 50.0132 39.2235C50.187 39.3973 50.3935 39.535 50.6208 39.6287C50.8481 39.7223 51.0917 39.7701 51.3376 39.7691H61.2953C61.5412 39.7701 61.7848 39.7224 62.0121 39.6287C62.2394 39.5351 62.4459 39.3974 62.6198 39.2235C62.7936 39.0497 62.9313 38.8432 63.025 38.6159C63.1186 38.3885 63.1663 38.1449 63.1654 37.8991C63.1649 37.6542 63.1161 37.4117 63.0218 37.1857C62.9275 36.9596 62.7896 36.7544 62.6159 36.5817C62.4422 36.409 62.2362 36.2723 62.0096 36.1793C61.783 36.0864 61.5402 36.039 61.2953 36.04H53.1967V27.9413C53.1948 27.4492 52.9982 26.9778 52.6498 26.6302C52.3015 26.2825 51.8297 26.0868 51.3376 26.0859ZM5.6746 29.7313C5.42967 29.7318 5.18724 29.7806 4.96118 29.8749C4.73513 29.9691 4.52989 30.1071 4.3572 30.2808C4.18452 30.4545 4.04779 30.6605 3.95483 30.8871C3.86187 31.1137 3.81452 31.3564 3.81547 31.6014C3.8174 32.0935 4.014 32.5649 4.36234 32.9126C4.71068 33.2602 5.18245 33.4559 5.6746 33.4568H18.2955C18.787 33.4549 19.2578 33.2588 19.6054 32.9113C19.9529 32.5637 20.1491 32.0929 20.151 31.6014C20.1519 31.3568 20.1047 31.1143 20.012 30.888C19.9192 30.6616 19.7828 30.4557 19.6105 30.2821C19.4382 30.1084 19.2334 29.9704 19.0078 29.8759C18.7822 29.7814 18.5401 29.7323 18.2955 29.7313H5.6746ZM7.47551 38.7504C6.98399 38.7523 6.51316 38.9484 6.1656 39.296C5.81804 39.6436 5.62194 40.1144 5.62002 40.6059C5.62194 41.0974 5.81804 41.5683 6.1656 41.9158C6.51316 42.2634 6.98399 42.4595 7.47551 42.4614H18.2955C18.787 42.4595 19.2578 42.2634 19.6054 41.9158C19.9529 41.5682 20.1491 41.0974 20.151 40.6059C20.1491 40.1144 19.9529 39.6436 19.6054 39.296C19.2578 38.9484 18.787 38.7523 18.2955 38.7504H7.47551ZM9.2764 47.7586C8.78489 47.7605 8.31406 47.9566 7.9665 48.3042C7.61895 48.6517 7.42285 49.1226 7.42093 49.6141C7.41997 49.8587 7.46721 50.1011 7.55994 50.3275C7.65266 50.5538 7.78907 50.7597 7.96137 50.9334C8.13367 51.107 8.33848 51.245 8.56411 51.3395C8.78975 51.434 9.03178 51.4832 9.2764 51.4841H18.2955C18.5401 51.4832 18.7822 51.434 19.0078 51.3395C19.2334 51.245 19.4382 51.107 19.6105 50.9334C19.7828 50.7597 19.9192 50.5538 20.012 50.3275C20.1047 50.1011 20.1519 49.8587 20.151 49.6141C20.1491 49.1226 19.953 48.6517 19.6054 48.3042C19.2578 47.9566 18.787 47.7605 18.2955 47.7586H9.2764Z" fill="black"/>
</g>
<defs>
<filter id="filter0_d" x="0" y="0" width="86.243" height="73" filterUnits="userSpaceOnUse" color-interpolation-filters="sRGB">
<feFlood flood-opacity="0" result="BackgroundImageFix"/>
<feColorMatrix in="SourceAlpha" type="matrix" values="0 0 0 0 0 0 0 0 0 0 0 0 0 0 0 0 0 0 127 0"/>
<feOffset dx="2" dy="4"/>
<feGaussianBlur stdDeviation="2"/>
<feColorMatrix type="matrix" values="0 0 0 0 0 0 0 0 0 0 0 0 0 0 0 0 0 0 0.4 0"/>
<feBlend mode="normal" in2="BackgroundImageFix" result="effect1_dropShadow"/>
<feBlend mode="normal" in="SourceGraphic" in2="effect1_dropShadow" result="shape"/>
</filter>
</defs>
</svg>
