<?xml version="1.0" encoding="utf-8"?>
<!-- Generator: Adobe Illustrator 24.2.0, SVG Export Plug-In . SVG Version: 6.00 Build 0)  -->
<svg version="1.1" id="Ebene_1" xmlns="http://www.w3.org/2000/svg" xmlns:xlink="http://www.w3.org/1999/xlink" x="0px" y="0px"
	 viewBox="0 0 512 640" style="enable-background:new 0 0 512 640;" xml:space="preserve">
<style type="text/css">
	.st0{fill:#FFFFFF;}
</style>
<path class="st0" d="M495.8,248.4l-60-30c-4-2-8.8-1.8-12.6,0.6c-3.8,2.4-6.2,6.6-6.2,11.1v17h-4.3c-2.5-59.5-21.8-115-55.2-157.6
	C321,42.7,272.2,17,220,17c-3.8,0-7.3,1.6-9.8,4.5l-200,230c0,0-0.1,0.1-0.1,0.1c-0.1,0.1-0.2,0.3-0.4,0.5c-0.1,0.2-0.3,0.3-0.4,0.5
	c-0.1,0.2-0.2,0.3-0.3,0.5c-0.1,0.2-0.2,0.4-0.3,0.6c-0.1,0.2-0.2,0.3-0.3,0.5c-0.1,0.2-0.2,0.4-0.3,0.6c-0.1,0.2-0.2,0.4-0.2,0.5
	c-0.1,0.2-0.2,0.4-0.2,0.6c-0.1,0.2-0.1,0.4-0.2,0.6c-0.1,0.2-0.1,0.4-0.2,0.6c0,0.2-0.1,0.4-0.1,0.5c0,0.2-0.1,0.5-0.1,0.7
	c0,0.2,0,0.3-0.1,0.5c-0.1,0.8-0.1,1.6,0,2.5c0,0.2,0,0.3,0.1,0.5c0,0.2,0.1,0.5,0.1,0.7c0,0.2,0.1,0.4,0.1,0.5
	c0.1,0.2,0.1,0.4,0.2,0.6c0.1,0.2,0.1,0.4,0.2,0.6c0.1,0.2,0.1,0.4,0.2,0.6c0.1,0.2,0.1,0.4,0.2,0.5c0.1,0.2,0.2,0.4,0.3,0.6
	c0.1,0.2,0.2,0.3,0.3,0.5c0.1,0.2,0.2,0.4,0.3,0.6c0.1,0.2,0.2,0.3,0.3,0.5c0.1,0.2,0.3,0.3,0.4,0.5c0.1,0.2,0.2,0.3,0.4,0.5
	c0,0,0.1,0.1,0.1,0.1l200,230c2.5,2.8,6,4.5,9.8,4.5c52.2,0,101-25.7,137.5-72.4c33.4-42.6,52.7-98.2,55.2-157.6h4.3v17
	c0,4.5,2.3,8.7,6.2,11.1c2.1,1.3,4.5,1.9,6.8,1.9c2,0,4-0.5,5.8-1.4l60-30c4.4-2.2,7.2-6.7,7.2-11.6S500.2,250.6,495.8,248.4z
	 M225.8,43.1C311.9,47,381.6,135.9,386.7,247H48.5L225.8,43.1z M225.8,476.9L48.5,273h338.2C381.6,384.1,311.9,473,225.8,476.9z
	 M443,269V251l17.9,9L443,269z"/>
</svg>
