<?xml version="1.0" encoding="utf-8"?>
<!-- Generator: Adobe Illustrator 24.2.0, SVG Export Plug-In . SVG Version: 6.00 Build 0)  -->
<svg version="1.1"
	 id="Ebene_1" xmlns:cc="http://creativecommons.org/ns#" xmlns:dc="http://purl.org/dc/elements/1.1/" xmlns:inkscape="http://www.inkscape.org/namespaces/inkscape" xmlns:rdf="http://www.w3.org/1999/02/22-rdf-syntax-ns#" xmlns:sodipodi="http://sodipodi.sourceforge.net/DTD/sodipodi-0.dtd" xmlns:svg="http://www.w3.org/2000/svg"
	 xmlns="http://www.w3.org/2000/svg" xmlns:xlink="http://www.w3.org/1999/xlink" x="0px" y="0px" viewBox="0 0 16.9 21.2"
	 style="enable-background:new 0 0 16.9 21.2;" xml:space="preserve">
<style type="text/css">
	.st0{fill:#FFFFFF;}
</style>
<g transform="translate(0,-280.06664)">
	<path class="st0" d="M13.7,280.6c-0.1,0-0.3,0.1-0.4,0.2l-1.7,1.7c-1-0.5-2.1-0.8-3.2-0.8h0c-3.8,0-6.9,3.1-6.9,6.9
		c0,1.9,0.8,3.6,2,4.9l-1.9,2.2c-0.5,0.5,0.3,1.3,0.8,0.7l1.9-2.2c1.1,0.8,2.5,1.3,4.1,1.3c1.5,0,2.9-0.5,4.1-1.3l1.9,2.2
		c0.5,0.5,1.3-0.2,0.8-0.7l-1.9-2.2c1.2-1.2,2-3,2-4.9v0c0-1.1-0.3-2.2-0.8-3.2l1.7-1.7c0.2-0.2,0.2-0.5,0-0.7
		c-0.1-0.1-0.2-0.2-0.4-0.2h-1.6v-1.6C14.3,280.8,14.1,280.6,13.7,280.6C13.8,280.6,13.7,280.6,13.7,280.6z M13.2,282.4v0.8
		c0,0.3,0.2,0.5,0.5,0.5h0.8l-1.1,1.1h-1.4v-1.4L13.2,282.4z M8.5,282.7c0.9,0,1.8,0.2,2.6,0.6v1.8l-0.4,0.4
		c-0.6-0.5-1.4-0.7-2.2-0.7c-2,0-3.7,1.7-3.7,3.7s1.7,3.7,3.7,3.7s3.7-1.7,3.7-3.7c0-0.8-0.3-1.6-0.7-2.2l0.4-0.4h1.8
		c0.4,0.8,0.6,1.7,0.6,2.6c0,3.2-2.6,5.8-5.8,5.8c-3.2,0-5.8-2.6-5.8-5.8C2.6,285.3,5.2,282.7,8.5,282.7z M8.5,285.9
		c0.5,0,1,0.2,1.5,0.4l-1.8,1.8c-0.2,0.2-0.2,0.5,0,0.7c0.2,0.2,0.5,0.2,0.7,0c0,0,0,0,0,0l1.8-1.8c0.3,0.4,0.4,0.9,0.4,1.5
		c0,1.5-1.2,2.6-2.6,2.6s-2.6-1.2-2.6-2.6C5.8,287.1,7,285.9,8.5,285.9z"/>
</g>
</svg>
