<?xml version="1.0" encoding="utf-8"?>
<!-- Generator: Adobe Illustrator 24.2.0, SVG Export Plug-In . SVG Version: 6.00 Build 0)  -->
<svg version="1.1" xmlns="http://www.w3.org/2000/svg" xmlns:xlink="http://www.w3.org/1999/xlink" x="0px" y="0px"
	 viewBox="0 0 100 125" style="enable-background:new 0 0 100 125;" xml:space="preserve">
<style type="text/css">
	.st0{fill:#FFFFFF;}
</style>
<g id="Ebene_2">
</g>
<g id="Ebene_1">
	<g>
		<path class="st0" d="M77.7,29.6L65.8,29c0.4-10.5-4-20.5-11.4-26.1c-0.8-0.6-2-0.5-2.6,0.4s-0.5,2,0.4,2.6l0,0l-1,19.1
			c-0.4,0.1-0.7,0.3-1,0.6c0,0-4,3.1-13.4,4.4c-1.7,0.2-8,0.1-8,0.1c-4.3,0-5.2,4.6-3.7,6.8l0.5,22.2l-4.2,33.6
			c-0.3,2.4,1.4,4.6,3.8,4.9s4.6-1.4,4.9-3.8l3.8-30.5l3.8,30.5c0.3,2.2,2.2,3.8,4.3,3.8c0.2,0,0.4,0,0.5,0c2.4-0.3,4.1-2.5,3.8-4.9
			l-4.2-33.5l0.3-17.1c1.3,0.9,2.8,1.6,4.5,1.8c1,0.1,2.1,0.2,3.3,0.3l-0.4,7.7l0,0c-0.9,0.5-1.2,1.7-0.6,2.6c0.4,0.6,1,0.9,1.6,0.9
			c0.3,0,0.7-0.1,1-0.3c4-2.5,7.4-6.1,9.8-10.5c1.8-0.2,3.3-1.7,3.3-3.6c0-0.9-0.3-1.7-0.8-2.3c0.8-2.3,1.3-4.8,1.5-7.3L77.5,32
			c0,0,0,0,0.1,0c0.5,0,1-0.4,1-1C78.7,30.1,78.2,29.6,77.7,29.6z M50.7,36.5c-1-0.1-2-0.2-2.8-0.2c-0.5-0.1-1-0.3-1.5-0.8
			c1.8-0.6,3.3-1.1,4.5-1.7L50.7,36.5z M52.1,50.1l0.3-6c1.7,0.1,3.5,0.2,4.9,0.2C55.8,46.5,54.1,48.5,52.1,50.1z M60.7,36.9
			c-1.3,0-4.6-0.1-8-0.3l0.2-4c1.2-0.7,1.9-1.3,2.1-1.4c0.2-0.2,0.4-0.5,0.6-0.7l6.3,0.3C61.7,33,61.3,35,60.7,36.9z M56.3,28.5
			c0-0.9-0.3-1.7-0.9-2.5c-0.6-0.7-1.3-1.1-2.1-1.2l0.9-17.2c5.2,5.1,8.2,12.9,7.9,21.2L56.3,28.5z"/>
		<circle class="st0" cx="33.8" cy="18.7" r="8.7"/>
	</g>
</g>
</svg>
