<?xml version="1.0" encoding="utf-8"?>
<!-- Generator: Adobe Illustrator 24.2.0, SVG Export Plug-In . SVG Version: 6.00 Build 0)  -->
<svg version="1.1" id="Ebene_1" xmlns="http://www.w3.org/2000/svg" xmlns:xlink="http://www.w3.org/1999/xlink" x="0px" y="0px"
	 viewBox="0 0 100 125" style="enable-background:new 0 0 100 125;" xml:space="preserve">
<style type="text/css">
	.st0{fill:#FFFFFF;}
</style>
<g>
	<path class="st0" d="M78.2,37.5c-0.5-1-1.6-1.5-2.6-1l-6.6,3l-9.6-4.1c2.8-0.9,5-2.8,6.4-5.4c1.5-2.7,1.8-5.8,0.9-8.8
		c-1.4-4.9-6-8.3-11.1-8.3c-1.1,0-2.2,0.2-3.3,0.5c-3,0.9-5.4,2.8-6.9,5.5s-1.8,5.8-0.9,8.8c1.1,3.7,3.9,6.5,7.5,7.7l-7.8,13.9h-8.8
		c-1.1,0-2,0.9-2,2s0.9,2,2,2h10c0,0,0,0,0,0c0,0,0,0,0,0c0.2,0,0.3,0,0.5-0.1c0,0,0.1,0,0.1,0c0.1,0,0.2-0.1,0.3-0.1
		c0,0,0.1,0,0.1-0.1c0.1-0.1,0.3-0.2,0.4-0.3c0,0,0,0,0,0c0.1-0.1,0.2-0.2,0.3-0.4c0,0,0,0,0,0l5.2-9.3v13.3l-5.5,28.7h-4.1
		c-1.1,0-2,0.9-2,2s0.9,2,2,2h5.8c0,0,0,0,0,0c0.1,0,0.3,0,0.4,0c0,0,0.1,0,0.1,0c0.1,0,0.2,0,0.2-0.1c0,0,0.1,0,0.1-0.1
		c0.1,0,0.1-0.1,0.2-0.1c0,0,0.1-0.1,0.1-0.1c0.1,0,0.1-0.1,0.2-0.1c0,0,0.1-0.1,0.1-0.1c0.1-0.1,0.1-0.1,0.1-0.2
		c0,0,0.1-0.1,0.1-0.1c0-0.1,0.1-0.1,0.1-0.2c0,0,0-0.1,0.1-0.1c0-0.1,0.1-0.2,0.1-0.3c0,0,0-0.1,0-0.1c0,0,0,0,0,0L55,63.9
		l7.9,21.1h-3.4c-1.1,0-2,0.9-2,2s0.9,2,2,2h6.3c0,0,0,0,0,0c0.1,0,0.3,0,0.4,0c0.1,0,0.1,0,0.1,0c0.1,0,0.1,0,0.2,0c0,0,0,0,0,0
		c0.1,0,0.1-0.1,0.2-0.1c0.1,0,0.1-0.1,0.2-0.1c0.1,0,0.1-0.1,0.2-0.1c0.1,0,0.1-0.1,0.2-0.1c0,0,0.1-0.1,0.1-0.1
		c0-0.1,0.1-0.1,0.1-0.2c0-0.1,0.1-0.1,0.1-0.2c0-0.1,0.1-0.1,0.1-0.2s0-0.1,0.1-0.2c0-0.1,0-0.1,0.1-0.2c0-0.1,0-0.1,0-0.2
		c0-0.1,0-0.2,0-0.2c0,0,0,0,0,0c0,0,0-0.1,0-0.1c0-0.1,0-0.1,0-0.2c0-0.1,0-0.1-0.1-0.2c0,0,0-0.1,0-0.1L56.4,56.2V38.5l11.8,5
		c0,0,0.1,0,0.2,0c0,0,0.1,0,0.1,0c0.2,0,0.3,0.1,0.5,0.1h0h0c0.2,0,0.3,0,0.5-0.1c0.1,0,0.1,0,0.1,0c0.1,0,0.1,0,0.2-0.1l7.4-3.3
		C78.2,39.7,78.6,38.5,78.2,37.5z"/>
	<path class="st0" d="M27.1,53.4h3.7c1.1,0,2-0.9,2-2s-0.9-2-2-2h-3.8c0.1-7.9,3.1-15.5,8.4-21.5c0.7-0.8,0.7-2.1-0.2-2.8
		c-0.8-0.7-2.1-0.7-2.8,0.2c-6,6.7-9.3,15.2-9.5,24.1H12.7c-1.1,0-2,0.9-2,2s0.9,2,2,2h10.4c0.8,9.4,5.1,18,12.2,24.3
		c0.4,0.3,0.9,0.5,1.3,0.5c0.5,0,1.1-0.2,1.5-0.7c0.7-0.8,0.7-2.1-0.2-2.8C31.8,69.1,27.9,61.6,27.1,53.4z"/>
</g>
</svg>
